<svg width="27" height="31" viewBox="0 0 27 31" fill="none" xmlns="http://www.w3.org/2000/svg">
<path d="M22.5 31C21.2625 31 20.2035 30.5667 19.323 29.7002C18.4425 28.8337 18.0015 27.7908 18 26.5714V4.42857C18 3.21072 18.441 2.16853 19.323 1.302C20.205 0.435479 21.264 0.00147994 22.5 3.75303e-06C23.736 -0.00147244 24.7957 0.432527 25.6792 1.302C26.5627 2.17148 27.003 3.21367 27 4.42857V26.5714C27 27.7893 26.5597 28.8322 25.6792 29.7002C24.7987 30.5682 23.739 31.0015 22.5 31ZM4.5 31C3.2625 31 2.2035 30.5667 1.323 29.7002C0.442499 28.8337 0.0015 27.7908 0 26.5714V4.42857C0 3.21072 0.440999 2.16853 1.323 1.302C2.205 0.435479 3.264 0.00147994 4.5 3.75303e-06C5.736 -0.00147244 6.79575 0.432527 7.67925 1.302C8.56275 2.17148 9.003 3.21367 9 4.42857V26.5714C9 27.7893 8.55975 28.8322 7.67925 29.7002C6.79875 30.5682 5.739 31.0015 4.5 31Z" fill="#FAF9F6"/>
</svg>
