<svg width="46" height="37" viewBox="0 0 46 37" fill="none" xmlns="http://www.w3.org/2000/svg">
<path d="M40.9016 27.5348C40.0583 25.3325 38.0928 24.2165 36.1953 23.1373C34.5441 22.1976 32.9848 21.3097 31.9652 19.7154C29.1544 15.2994 27.6105 12.6348 23.0057 12.6348C18.401 12.6348 16.8523 15.3003 14.0348 19.7145C13.0142 21.3123 11.4473 22.202 9.79418 23.1434C7.89668 24.2235 5.93498 25.3369 5.08877 27.5348C4.75951 28.3274 4.59379 29.169 4.60002 30.017C4.60002 33.5915 7.70981 36.5001 11.155 36.5001C14.6002 36.5001 19.1389 34.9094 23.0153 34.9094C26.8918 34.9094 31.3672 36.5001 34.8555 36.5001C38.3438 36.5001 41.4 33.5915 41.4 30.017C41.4027 29.1685 41.2337 28.3269 40.9016 27.5348Z" fill="#7F1E87"/>
<path d="M5.36666 21.0575C8.33058 21.0575 10.7333 18.2291 10.7333 14.7402C10.7333 11.2512 8.33058 8.42285 5.36666 8.42285C2.40273 8.42285 0 11.2512 0 14.7402C0 18.2291 2.40273 21.0575 5.36666 21.0575Z" fill="#7F1E87"/>
<path d="M16.1001 12.6346C19.064 12.6346 21.4667 9.80625 21.4667 6.3173C21.4667 2.82835 19.064 0 16.1001 0C13.1361 0 10.7334 2.82835 10.7334 6.3173C10.7334 9.80625 13.1361 12.6346 16.1001 12.6346Z" fill="#7F1E87"/>
<path d="M29.8999 12.6346C32.8638 12.6346 35.2665 9.80625 35.2665 6.3173C35.2665 2.82835 32.8638 0 29.8999 0C26.9359 0 24.5332 2.82835 24.5332 6.3173C24.5332 9.80625 26.9359 12.6346 29.8999 12.6346Z" fill="#7F1E87"/>
<path d="M40.6333 21.0575C43.5972 21.0575 45.9999 18.2291 45.9999 14.7402C45.9999 11.2512 43.5972 8.42285 40.6333 8.42285C37.6693 8.42285 35.2666 11.2512 35.2666 14.7402C35.2666 18.2291 37.6693 21.0575 40.6333 21.0575Z" fill="#7F1E87"/>
</svg>
