<svg width="159" height="148" viewBox="0 0 159 148" fill="none" xmlns="http://www.w3.org/2000/svg">
<path d="M71.1572 4.64949C72.0076 3.23479 73.2257 2.06098 74.6901 1.24516C76.1545 0.429328 77.8139 0 79.5029 0C81.1919 0 82.8513 0.429328 84.3157 1.24516C85.7801 2.06098 86.9982 3.23479 87.8486 4.64949L109.447 40.5938L151.392 49.4038C153.042 49.7514 154.569 50.5121 155.821 51.6103C157.073 52.7084 158.006 54.1055 158.528 55.6624C159.049 57.2192 159.141 58.8813 158.793 60.4831C158.445 62.0849 157.67 63.5703 156.546 64.7913L127.954 95.8137L132.282 137.204C132.452 138.834 132.179 140.479 131.489 141.974C130.799 143.47 129.716 144.763 128.349 145.726C126.982 146.689 125.379 147.288 123.698 147.462C122.018 147.636 120.32 147.38 118.774 146.718L79.5029 129.937L40.2318 146.718C38.6856 147.38 36.9877 147.636 35.3075 147.462C33.6272 147.288 32.0235 146.689 30.6564 145.726C29.2893 144.763 28.2067 143.47 27.5167 141.974C26.8267 140.479 26.5534 138.834 26.7241 137.204L31.0515 95.8137L2.45978 64.7988C1.33332 63.5779 0.556925 62.0919 0.208093 60.4891C-0.140739 58.8863 -0.0497996 57.2229 0.471832 55.6648C0.993463 54.1068 1.92754 52.7087 3.1808 51.61C4.43406 50.5114 5.96267 49.7506 7.61402 49.4038L49.5589 40.5938L71.1572 4.64949Z" fill="#FFD215"/>
<path d="M103.35 92.7187C102.25 89.7018 99.6864 88.173 97.2114 86.6946C95.0576 85.4074 93.0239 84.191 91.6939 82.0071C88.0276 75.9579 86.0139 72.3076 80.0076 72.3076C74.0014 72.3076 71.9814 75.9591 68.3064 82.0059C66.9751 84.1946 64.9314 85.4134 62.7751 86.703C60.3001 88.1826 57.7413 89.7078 56.6376 92.7187C56.2081 93.8044 55.992 94.9573 56.0001 96.1189C56.0001 101.016 60.0563 105 64.5501 105C69.0439 105 74.9639 102.821 80.0201 102.821C85.0764 102.821 90.9139 105 95.4639 105C100.014 105 104 101.016 104 96.1189C104.004 94.9566 103.783 93.8038 103.35 92.7187Z" fill="#7F1E87"/>
<path d="M57 83.8458C60.866 83.8458 64 79.9713 64 75.1919C64 70.4125 60.866 66.5381 57 66.5381C53.134 66.5381 50 70.4125 50 75.1919C50 79.9713 53.134 83.8458 57 83.8458Z" fill="#7F1E87"/>
<path d="M71.0001 72.3077C74.8661 72.3077 78.0001 68.4332 78.0001 63.6538C78.0001 58.8745 74.8661 55 71.0001 55C67.1341 55 64.0001 58.8745 64.0001 63.6538C64.0001 68.4332 67.1341 72.3077 71.0001 72.3077Z" fill="#7F1E87"/>
<path d="M88.9999 72.3077C92.8659 72.3077 95.9999 68.4332 95.9999 63.6538C95.9999 58.8745 92.8659 55 88.9999 55C85.1339 55 81.9999 58.8745 81.9999 63.6538C81.9999 68.4332 85.1339 72.3077 88.9999 72.3077Z" fill="#7F1E87"/>
<path d="M103 83.8458C106.866 83.8458 110 79.9713 110 75.1919C110 70.4125 106.866 66.5381 103 66.5381C99.134 66.5381 96 70.4125 96 75.1919C96 79.9713 99.134 83.8458 103 83.8458Z" fill="#7F1E87"/>
</svg>
