<svg width="248" height="209" viewBox="0 0 248 209" fill="none" xmlns="http://www.w3.org/2000/svg">
<path d="M222.348 82.0387L223.507 82.9183C224.249 83.5596 224.907 84.2951 225.468 85.1095L225.679 85.4974L227.671 88.5335C241.489 110.508 247.968 139.18 247.175 174.257L246.982 179.856C246.867 182.447 246.002 185 244.496 187.185C242.989 189.37 240.912 191.088 238.53 192.117C202.261 207.795 170.142 212.415 142.457 205.783C140.018 205.197 137.862 203.853 136.272 201.927C134.681 200.001 133.73 197.582 133.545 194.989C132.071 174.737 136.519 154.061 146.326 135.573L125.433 121.172L102.796 154.014C100.795 156.917 97.8069 158.965 94.4897 159.707C91.1726 160.449 87.7978 159.824 85.1079 157.97C82.4179 156.116 80.6331 153.185 80.1461 149.821C79.6591 146.457 80.5097 142.936 82.5109 140.032L105.148 107.19L84.8627 93.2084L77.3171 104.156C75.3159 107.059 72.328 109.107 69.0109 109.849C65.6937 110.591 62.319 109.967 59.629 108.112C56.9391 106.258 55.1542 103.327 54.6672 99.9628C54.1802 96.5987 55.0309 93.0777 57.0321 90.1742L64.5777 79.2269L52.7515 71.0756L46.909 72.2806C36.289 74.5871 25.7205 77.2445 15.2203 80.2486C11.9373 81.1893 8.51729 80.7747 5.71268 79.0959C2.90806 77.4172 0.948578 74.6119 0.265294 71.2972C-0.41799 67.9825 0.230886 64.4299 2.06919 61.4208C3.90749 58.4118 6.78463 56.1929 10.0677 55.2523C17.4326 53.148 24.8268 51.2039 32.2503 49.4199L41.5287 47.2889L40.2158 37.8415C39.7336 34.0562 39.2909 30.2629 38.888 26.4622L37.7901 15.0315C37.6469 13.3466 37.8309 11.6254 38.3317 9.96621C38.8324 8.30702 39.6401 6.74233 40.7085 5.36147C41.777 3.98062 43.0853 2.81064 44.5588 1.91835C46.0324 1.02606 47.6422 0.428916 49.2964 0.161025C50.9507 -0.106866 52.6169 -0.0402605 54.2001 0.357037C55.7832 0.754333 57.2522 1.47455 58.5232 2.47655C59.7942 3.47855 60.8423 4.74271 61.6076 6.19686C62.373 7.65102 62.8406 9.26668 62.9838 10.9516C64.0749 23.7483 65.6356 36.4643 67.6627 49.0729L79.6688 57.3321L87.2144 46.3847C89.2156 43.4812 92.2034 41.4333 95.5206 40.6912C98.8377 39.9492 102.212 40.574 104.902 42.4281C107.592 44.2821 109.377 47.2137 109.864 50.5777C110.351 53.9418 109.501 57.4628 107.499 60.3663L99.9538 71.3137L120.239 85.2952L142.876 52.4531C144.877 49.5496 147.865 47.5016 151.182 46.7596C154.499 46.0176 157.874 46.6424 160.564 48.4965C163.254 50.3505 165.038 53.282 165.525 56.6461C166.012 60.0102 165.162 63.5312 163.161 66.4346L140.524 99.2768L161.438 113.692C174.168 99.1455 190.292 88.183 208.061 81.9936L211.86 80.7364L213.232 80.3739L214.961 80.1446L216.013 80.0945L217.389 80.2034L218.315 80.3573L220.032 80.8622L221.083 81.3123C221.517 81.5362 221.939 81.7783 222.348 82.0387ZM208.924 130.274C206.44 128.562 203.364 127.894 200.279 128.396C197.195 128.899 194.316 130.536 192.19 132.999L191.161 134.34C189.241 137.133 188.381 140.499 188.757 143.751C189.133 147.003 190.717 149.896 193.185 151.838C195.653 153.78 198.819 154.625 202.035 154.201C205.252 153.776 208.277 152.114 210.492 149.554L211.521 148.212C213.523 145.309 214.373 141.788 213.886 138.424C213.399 135.06 211.614 132.128 208.924 130.274Z" fill="#7F1E87" fill-opacity="0.15"/>
</svg>
