<svg width="338" height="315" viewBox="0 0 338 315" fill="none" xmlns="http://www.w3.org/2000/svg">
<path d="M110.174 17.2385C110.912 13.893 112.594 10.6976 115.053 7.97108C117.513 5.24457 120.663 3.08226 124.19 1.69984C127.717 0.317425 131.498 -0.236774 135.155 0.0925421C138.812 0.421852 142.218 1.62316 145.032 3.57662L216.521 53.216L310.585 35.3839C314.286 34.6844 318.033 34.8593 321.454 35.8911C324.875 36.9229 327.85 38.7755 330.082 41.2644C332.313 43.7532 333.724 46.7913 334.174 50.0758C334.624 53.3603 334.096 56.7763 332.644 59.9835L295.704 141.486L335.123 215.461C336.676 218.374 337.313 221.678 336.969 225.043C336.626 228.409 335.315 231.718 333.166 234.64C331.018 237.563 328.108 239.996 324.727 241.697C321.346 243.399 317.612 244.308 313.898 244.336L219.567 245.051L149.871 308.623C147.128 311.126 143.77 312.996 140.133 314.045C136.496 315.094 132.708 315.286 129.146 314.602C125.584 313.917 122.374 312.381 119.835 310.145C117.296 307.909 115.518 305.052 114.679 301.86L93.3344 220.8L10.8584 186.117C7.60974 184.753 4.89755 182.605 2.99258 179.889C1.08762 177.172 0.0565361 173.983 0.00226439 170.638C-0.0520074 167.293 0.872438 163.91 2.6833 160.826C4.49416 157.743 7.12808 155.067 10.3221 153.066L91.4522 102.234L110.174 17.2385Z" fill="#7F1E87" fill-opacity="0.15"/>
</svg>
