<svg width="248" height="209" viewBox="0 0 248 209" fill="none" xmlns="http://www.w3.org/2000/svg">
<path d="M24.8924 82.0389L23.7333 82.9186C22.9915 83.5598 22.3333 84.2954 21.7726 85.1097L21.5612 85.4976L19.5695 88.5337C5.75126 110.508 -0.727878 139.18 0.0649294 174.257L0.258713 179.856C0.372814 182.448 1.23861 185 2.7447 187.185C4.2508 189.371 6.32828 191.088 8.70976 192.117C44.9796 207.795 77.0982 212.415 104.783 205.783C107.222 205.198 109.378 203.854 110.969 201.927C112.559 200.001 113.51 197.582 113.696 194.989C115.17 174.737 110.722 154.061 100.914 135.573L121.808 121.172L144.444 154.014C146.446 156.917 149.433 158.965 152.75 159.707C156.068 160.449 159.442 159.825 162.132 157.971C164.822 156.117 166.607 153.185 167.094 149.821C167.581 146.457 166.731 142.936 164.729 140.032L142.093 107.19L162.378 93.2087L169.923 104.156C171.924 107.06 174.912 109.108 178.229 109.85C181.547 110.592 184.921 109.967 187.611 108.113C190.301 106.259 192.086 103.327 192.573 99.963C193.06 96.599 192.209 93.0779 190.208 90.1745L182.663 79.2271L194.489 71.0758L200.331 72.2809C210.951 74.5873 221.52 77.2447 232.02 80.2489C235.303 81.1895 238.723 80.7749 241.528 79.0962C244.332 77.4175 246.292 74.6122 246.975 71.2975C247.658 67.9827 247.009 64.4301 245.171 61.4211C243.333 58.4121 240.456 56.1932 237.173 55.2525C229.808 53.1483 222.413 51.2041 214.99 49.4201L205.711 47.2891L207.024 37.8418C207.507 34.0565 207.949 30.2632 208.352 26.4625L209.45 15.0318C209.593 13.3468 209.409 11.6256 208.909 9.96646C208.408 8.30727 207.6 6.74257 206.532 5.36172C205.463 3.98086 204.155 2.81089 202.681 1.91859C201.208 1.0263 199.598 0.429159 197.944 0.161269C196.29 -0.106622 194.623 -0.0400152 193.04 0.357281C191.457 0.754577 189.988 1.47479 188.717 2.47679C187.446 3.47879 186.398 4.74295 185.633 6.1971C184.867 7.65126 184.4 9.26693 184.256 10.9519C183.165 23.7486 181.605 36.4646 179.578 49.0731L167.571 57.3323L160.026 46.3849C158.025 43.4815 155.037 41.4335 151.72 40.6915C148.403 39.9495 145.028 40.5742 142.338 42.4283C139.648 44.2824 137.863 47.2139 137.376 50.578C136.889 53.942 137.74 57.4631 139.741 60.3665L147.286 71.3139L127.001 85.2955L104.365 52.4533C102.363 49.5499 99.3757 47.5019 96.0585 46.7599C92.7413 46.0179 89.3666 46.6426 86.6766 48.4967C83.9867 50.3508 82.2019 53.2823 81.7148 56.6464C81.2278 60.0104 82.0785 63.5315 84.0797 66.4349L106.716 99.2771L85.8026 113.692C73.0727 99.1457 56.9485 88.1832 39.1789 81.9938L35.3801 80.7366L34.0082 80.3742L32.2792 80.1449L31.2273 80.0948L29.8511 80.2036L28.925 80.3575L27.2084 80.8625L26.1571 81.3125C25.723 81.5364 25.3014 81.7785 24.8924 82.0389ZM38.3158 130.274C40.8003 128.563 43.8765 127.894 46.9611 128.397C50.0456 128.899 52.9239 130.537 55.0501 132.999L56.0794 134.341C57.9997 137.133 58.8596 140.499 58.4835 143.751C58.1073 147.003 56.5234 149.896 54.0555 151.838C51.5875 153.78 48.4217 154.626 45.205 154.201C41.9882 153.777 38.9632 152.114 36.7482 149.554L35.7189 148.213C33.7177 145.309 32.867 141.788 33.354 138.424C33.841 135.06 35.6259 132.129 38.3158 130.274Z" fill="#7F1E87" fill-opacity="0.15"/>
</svg>
