<svg width="45" height="37" viewBox="0 0 45 37" fill="none" xmlns="http://www.w3.org/2000/svg">
<path d="M25.2744 0.518897L25.4975 0.396247C25.6531 0.323782 25.8185 0.272327 25.9902 0.242977L26.0681 0.238146L26.7014 0.144912C31.2438 -0.431719 36.3833 0.713883 42.0764 3.54811L42.9806 4.01157C43.3974 4.2301 43.7567 4.56915 44.012 4.98507C44.2674 5.40099 44.4072 5.87476 44.4134 6.3454C44.5098 13.5138 43.0772 19.1476 40.1034 23.1855C39.8412 23.5411 39.474 23.7918 39.0499 23.9047C38.6259 24.0175 38.1648 23.9873 37.7273 23.8179C34.3086 22.499 31.2241 20.1742 28.8634 17.1374L25.0796 19.4605L28.9176 25.7118C29.2569 26.2645 29.3887 26.9133 29.2842 27.5156C29.1796 28.1178 28.8472 28.6242 28.3601 28.9233C27.8729 29.2224 27.2709 29.2897 26.6866 29.1104C26.1022 28.9311 25.5832 28.5199 25.2439 27.9672L21.406 21.7159L17.7324 23.9713L19.0117 26.0551C19.351 26.6077 19.4828 27.2565 19.3783 27.8588C19.2737 28.4611 18.9413 28.9674 18.4542 29.2665C17.967 29.5656 17.365 29.6329 16.7807 29.4536C16.1963 29.2743 15.6773 28.8631 15.338 28.3105L14.0587 26.2267L11.917 27.5416L11.7162 28.5945C11.3701 30.5174 11.0851 32.4588 10.8615 34.4158C10.7919 35.0277 10.4908 35.5577 10.0245 35.8892C9.55831 36.2206 8.96509 36.3263 8.37541 36.1831C7.78573 36.0399 7.24787 35.6594 6.88017 35.1253C6.51247 34.5913 6.34504 33.9475 6.41472 33.3355C6.572 31.9631 6.75751 30.5983 6.97126 29.2409L7.25459 27.552L5.61718 27.0395C4.9641 26.8269 4.31241 26.6073 3.66221 26.3805L1.71449 25.6797C1.42866 25.5734 1.15919 25.4105 0.921474 25.2003C0.683757 24.9901 0.482444 24.7368 0.329031 24.4547C0.175619 24.1727 0.0731096 23.8676 0.0273576 23.5566C-0.0183942 23.2457 -0.00649311 22.9352 0.0623811 22.6427C0.131255 22.3502 0.255754 22.0816 0.428768 21.8521C0.601783 21.6225 0.819926 21.4367 1.07074 21.3051C1.32156 21.1735 1.60013 21.0987 1.89056 21.085C2.18099 21.0714 2.47759 21.1191 2.76343 21.2254C4.9345 22.0326 7.12436 22.7564 9.32841 23.3953L11.5001 22.0591L10.2208 19.9753C9.88146 19.4227 9.74958 18.7739 9.85413 18.1716C9.95868 17.5693 10.2911 17.0629 10.7783 16.7639C11.2654 16.4648 11.8674 16.3975 12.4518 16.5768C13.0362 16.7561 13.5551 17.1673 13.8944 17.7199L15.1737 19.8037L18.8473 17.5483L15.0094 11.297C14.6701 10.7443 14.5382 10.0955 14.6427 9.49323C14.7473 8.89096 15.0797 8.38459 15.5669 8.0855C16.054 7.78642 16.656 7.71912 17.2404 7.89842C17.8248 8.07772 18.3437 8.48893 18.683 9.04158L22.521 15.2929L26.3085 12.9676C24.7929 9.75452 24.0959 6.25994 24.2931 2.86296L24.3461 2.14182L24.3802 1.88846L24.4605 1.58668L24.524 1.40997L24.6356 1.19223L24.724 1.0519L24.9237 0.808764L25.0691 0.67072C25.1354 0.616639 25.2038 0.566032 25.2744 0.518897ZM32.2625 6.44295C31.8127 6.71923 31.4935 7.1732 31.3655 7.71876C31.2375 8.26433 31.3097 8.86353 31.5682 9.40273L31.7178 9.67527C32.0444 10.2061 32.5373 10.6068 33.0958 10.7957C33.6543 10.9846 34.2362 10.9473 34.7227 10.6915C35.2092 10.4357 35.5635 9.98069 35.7132 9.4194C35.8629 8.8581 35.7968 8.23291 35.5283 7.67156L35.3787 7.39903C35.0394 6.84638 34.5205 6.43517 33.9361 6.25587C33.3517 6.07657 32.7497 6.14386 32.2625 6.44295Z" fill="#FFD215"/>
</svg>
